<svg width="800" height="800" viewBox="112 112 800 800" fill="none" xmlns="http://www.w3.org/2000/svg" role="img" aria-label="Fulbito">
  <defs>
    <filter id="fulbitoShadow" x="112" y="112" width="800" height="800" filterUnits="userSpaceOnUse">
      <feDropShadow dx="0" dy="18" stdDeviation="24" flood-color="#000000" flood-opacity="0.3"/>
    </filter>
  </defs>

  <g filter="url(#fulbitoShadow)">
    <rect x="150" y="150" width="724" height="724" rx="180" fill="#0F172A"/>

    <rect x="248" y="248" width="528" height="528" rx="108" stroke="#16A34A" stroke-width="26" opacity="0.92"/>
    <path d="M512 278V746" stroke="#16A34A" stroke-width="20" stroke-linecap="round" stroke-dasharray="20 22" opacity="0.7"/>

    <path d="M366 338C332 338 306 364 306 398V458" stroke="#16A34A" stroke-width="24" stroke-linecap="round" stroke-linejoin="round"/>
    <path d="M330 402L306 458L282 402" stroke="#16A34A" stroke-width="24" stroke-linecap="round" stroke-linejoin="round"/>

    <path d="M658 686C692 686 718 660 718 626V566" stroke="#16A34A" stroke-width="24" stroke-linecap="round" stroke-linejoin="round"/>
    <path d="M694 622L718 566L742 622" stroke="#16A34A" stroke-width="24" stroke-linecap="round" stroke-linejoin="round"/>

    <circle cx="512" cy="344" r="38" fill="#16A34A"/>
    <circle cx="512" cy="680" r="38" fill="#16A34A"/>
    <circle cx="706" cy="512" r="38" fill="#16A34A"/>
    <circle cx="318" cy="512" r="38" fill="#16A34A"/>
  </g>
</svg>
